<mxfile host="app.diagrams.net" modified="2022-03-14T14:02:19.667Z" agent="5.0 (Windows NT 10.0; WOW64) AppleWebKit/537.36 (KHTML, like Gecko) Chrome/70.0.3538.25 Safari/537.36 Core/1.70.3883.400 QQBrowser/10.8.4559.400" etag="2L9bAcqfQ_SsVjeqDWIE" version="16.4.3" type="github">
  <diagram id="pCaMMqWfKWzjFwNiMYeM" name="Page-1">
    <mxGraphModel dx="1422" dy="809" grid="1" gridSize="10" guides="1" tooltips="1" connect="1" arrows="1" fold="1" page="1" pageScale="1" pageWidth="827" pageHeight="1169" math="0" shadow="0">
      <root>
        <mxCell id="0" />
        <mxCell id="1" parent="0" />
        <mxCell id="_RCp25i3ppbNcuDB2M4--38" value="" style="rounded=1;whiteSpace=wrap;html=1;fontSize=16;strokeColor=#FF0000;fillColor=none;" vertex="1" parent="1">
          <mxGeometry x="180" y="50" width="440" height="250" as="geometry" />
        </mxCell>
        <mxCell id="_RCp25i3ppbNcuDB2M4--37" value="" style="rounded=1;whiteSpace=wrap;html=1;fontSize=16;strokeColor=#FF0000;fillColor=none;" vertex="1" parent="1">
          <mxGeometry x="500" y="95" width="390" height="265" as="geometry" />
        </mxCell>
        <mxCell id="_RCp25i3ppbNcuDB2M4--1" value="Beckham" style="ellipse;whiteSpace=wrap;html=1;aspect=fixed;fontSize=15;" vertex="1" parent="1">
          <mxGeometry x="190" y="200" width="80" height="80" as="geometry" />
        </mxCell>
        <mxCell id="_RCp25i3ppbNcuDB2M4--2" value="play for&lt;br&gt;（2009.01，&lt;br&gt;2009.07）" style="whiteSpace=wrap;html=1;aspect=fixed;fontSize=15;" vertex="1" parent="1">
          <mxGeometry x="339" y="70" width="90" height="90" as="geometry" />
        </mxCell>
        <mxCell id="_RCp25i3ppbNcuDB2M4--5" value="entity" style="text;html=1;strokeColor=none;fillColor=none;align=center;verticalAlign=middle;whiteSpace=wrap;rounded=0;fontSize=16;" vertex="1" parent="1">
          <mxGeometry x="200" y="170" width="60" height="30" as="geometry" />
        </mxCell>
        <mxCell id="_RCp25i3ppbNcuDB2M4--6" value="statement" style="text;html=1;strokeColor=none;fillColor=none;align=center;verticalAlign=middle;whiteSpace=wrap;rounded=0;fontSize=16;" vertex="1" parent="1">
          <mxGeometry x="355" y="40" width="60" height="30" as="geometry" />
        </mxCell>
        <mxCell id="_RCp25i3ppbNcuDB2M4--15" style="edgeStyle=orthogonalEdgeStyle;rounded=0;orthogonalLoop=1;jettySize=auto;html=1;exitX=1;exitY=0.5;exitDx=0;exitDy=0;fontSize=16;strokeWidth=1;" edge="1" parent="1" source="_RCp25i3ppbNcuDB2M4--7">
          <mxGeometry relative="1" as="geometry">
            <mxPoint x="520" y="240" as="targetPoint" />
          </mxGeometry>
        </mxCell>
        <mxCell id="_RCp25i3ppbNcuDB2M4--7" value="play for&lt;br&gt;（2009.01，&lt;br&gt;2009.07）" style="whiteSpace=wrap;html=1;aspect=fixed;fontSize=15;" vertex="1" parent="1">
          <mxGeometry x="340" y="195" width="90" height="90" as="geometry" />
        </mxCell>
        <mxCell id="_RCp25i3ppbNcuDB2M4--18" style="edgeStyle=orthogonalEdgeStyle;rounded=0;orthogonalLoop=1;jettySize=auto;html=1;exitX=1;exitY=0.5;exitDx=0;exitDy=0;fontSize=16;strokeWidth=1;" edge="1" parent="1" source="_RCp25i3ppbNcuDB2M4--8">
          <mxGeometry relative="1" as="geometry">
            <mxPoint x="520" y="365" as="targetPoint" />
          </mxGeometry>
        </mxCell>
        <mxCell id="_RCp25i3ppbNcuDB2M4--8" value="spouse&lt;br&gt;（1999.07，&lt;br&gt;-）" style="whiteSpace=wrap;html=1;aspect=fixed;fontSize=15;" vertex="1" parent="1">
          <mxGeometry x="339" y="320" width="90" height="90" as="geometry" />
        </mxCell>
        <mxCell id="_RCp25i3ppbNcuDB2M4--9" value="statement" style="text;html=1;strokeColor=none;fillColor=none;align=center;verticalAlign=middle;whiteSpace=wrap;rounded=0;fontSize=16;" vertex="1" parent="1">
          <mxGeometry x="354" y="165" width="60" height="30" as="geometry" />
        </mxCell>
        <mxCell id="_RCp25i3ppbNcuDB2M4--10" value="statement" style="text;html=1;strokeColor=none;fillColor=none;align=center;verticalAlign=middle;whiteSpace=wrap;rounded=0;fontSize=16;" vertex="1" parent="1">
          <mxGeometry x="355" y="290" width="60" height="30" as="geometry" />
        </mxCell>
        <mxCell id="_RCp25i3ppbNcuDB2M4--11" value="" style="endArrow=classic;html=1;rounded=0;fontSize=16;strokeWidth=1;entryX=0;entryY=0.5;entryDx=0;entryDy=0;" edge="1" parent="1" target="_RCp25i3ppbNcuDB2M4--2">
          <mxGeometry width="50" height="50" relative="1" as="geometry">
            <mxPoint x="270" y="240" as="sourcePoint" />
            <mxPoint x="320" y="190" as="targetPoint" />
          </mxGeometry>
        </mxCell>
        <mxCell id="_RCp25i3ppbNcuDB2M4--12" value="" style="endArrow=classic;html=1;rounded=0;fontSize=16;strokeWidth=1;entryX=0;entryY=0.5;entryDx=0;entryDy=0;" edge="1" parent="1" target="_RCp25i3ppbNcuDB2M4--7">
          <mxGeometry width="50" height="50" relative="1" as="geometry">
            <mxPoint x="270" y="240" as="sourcePoint" />
            <mxPoint x="374" y="120" as="targetPoint" />
          </mxGeometry>
        </mxCell>
        <mxCell id="_RCp25i3ppbNcuDB2M4--13" value="" style="endArrow=classic;html=1;rounded=0;fontSize=16;strokeWidth=1;entryX=0;entryY=0.5;entryDx=0;entryDy=0;" edge="1" parent="1" target="_RCp25i3ppbNcuDB2M4--8">
          <mxGeometry width="50" height="50" relative="1" as="geometry">
            <mxPoint x="270" y="240" as="sourcePoint" />
            <mxPoint x="574" y="237.5" as="targetPoint" />
          </mxGeometry>
        </mxCell>
        <mxCell id="_RCp25i3ppbNcuDB2M4--14" value="" style="endArrow=classic;html=1;rounded=0;fontSize=16;strokeWidth=1;" edge="1" parent="1">
          <mxGeometry width="50" height="50" relative="1" as="geometry">
            <mxPoint x="429" y="110" as="sourcePoint" />
            <mxPoint x="519" y="240" as="targetPoint" />
          </mxGeometry>
        </mxCell>
        <mxCell id="_RCp25i3ppbNcuDB2M4--16" value="A.C. Milan" style="ellipse;whiteSpace=wrap;html=1;aspect=fixed;fontSize=15;" vertex="1" parent="1">
          <mxGeometry x="520" y="200" width="80" height="80" as="geometry" />
        </mxCell>
        <mxCell id="_RCp25i3ppbNcuDB2M4--17" value="entity" style="text;html=1;strokeColor=none;fillColor=none;align=center;verticalAlign=middle;whiteSpace=wrap;rounded=0;fontSize=16;" vertex="1" parent="1">
          <mxGeometry x="530" y="170" width="60" height="30" as="geometry" />
        </mxCell>
        <mxCell id="_RCp25i3ppbNcuDB2M4--19" value="&lt;span style=&quot;color: rgb(51 , 51 , 51) ; font-family: &amp;#34;open sans&amp;#34; , &amp;#34;clear sans&amp;#34; , &amp;#34;helvetica neue&amp;#34; , &amp;#34;helvetica&amp;#34; , &amp;#34;arial&amp;#34; , sans-serif ; font-size: 16px ; background-color: rgb(255 , 255 , 255)&quot;&gt;Victoria Beckham&lt;/span&gt;" style="ellipse;whiteSpace=wrap;html=1;aspect=fixed;fontSize=15;" vertex="1" parent="1">
          <mxGeometry x="520" y="325" width="80" height="80" as="geometry" />
        </mxCell>
        <mxCell id="_RCp25i3ppbNcuDB2M4--20" value="entity" style="text;html=1;strokeColor=none;fillColor=none;align=center;verticalAlign=middle;whiteSpace=wrap;rounded=0;fontSize=16;" vertex="1" parent="1">
          <mxGeometry x="530" y="295" width="60" height="30" as="geometry" />
        </mxCell>
        <mxCell id="_RCp25i3ppbNcuDB2M4--27" style="edgeStyle=orthogonalEdgeStyle;rounded=0;orthogonalLoop=1;jettySize=auto;html=1;exitX=1;exitY=0.5;exitDx=0;exitDy=0;entryX=0;entryY=0.5;entryDx=0;entryDy=0;fontSize=16;strokeWidth=1;" edge="1" parent="1" source="_RCp25i3ppbNcuDB2M4--21" target="_RCp25i3ppbNcuDB2M4--25">
          <mxGeometry relative="1" as="geometry" />
        </mxCell>
        <mxCell id="_RCp25i3ppbNcuDB2M4--21" value="head coach&lt;br&gt;（2001.11，&lt;br&gt;2009.05）" style="whiteSpace=wrap;html=1;aspect=fixed;fontSize=15;" vertex="1" parent="1">
          <mxGeometry x="650" y="140" width="90" height="90" as="geometry" />
        </mxCell>
        <mxCell id="_RCp25i3ppbNcuDB2M4--24" value="statement" style="text;html=1;strokeColor=none;fillColor=none;align=center;verticalAlign=middle;whiteSpace=wrap;rounded=0;fontSize=16;" vertex="1" parent="1">
          <mxGeometry x="665" y="110" width="60" height="30" as="geometry" />
        </mxCell>
        <mxCell id="_RCp25i3ppbNcuDB2M4--25" value="Carlo Ancelotti" style="ellipse;whiteSpace=wrap;html=1;aspect=fixed;fontSize=15;" vertex="1" parent="1">
          <mxGeometry x="790" y="145" width="80" height="80" as="geometry" />
        </mxCell>
        <mxCell id="_RCp25i3ppbNcuDB2M4--28" value="entity" style="text;html=1;strokeColor=none;fillColor=none;align=center;verticalAlign=middle;whiteSpace=wrap;rounded=0;fontSize=16;" vertex="1" parent="1">
          <mxGeometry x="800" y="115" width="60" height="30" as="geometry" />
        </mxCell>
        <mxCell id="_RCp25i3ppbNcuDB2M4--29" value="" style="endArrow=classic;html=1;rounded=0;fontSize=16;strokeWidth=1;entryX=0;entryY=0.5;entryDx=0;entryDy=0;" edge="1" parent="1" target="_RCp25i3ppbNcuDB2M4--21">
          <mxGeometry width="50" height="50" relative="1" as="geometry">
            <mxPoint x="600" y="240" as="sourcePoint" />
            <mxPoint x="650" y="190" as="targetPoint" />
          </mxGeometry>
        </mxCell>
        <mxCell id="_RCp25i3ppbNcuDB2M4--30" value="" style="endArrow=classic;html=1;rounded=0;fontSize=16;strokeWidth=1;entryX=0;entryY=0.5;entryDx=0;entryDy=0;exitX=1;exitY=0.5;exitDx=0;exitDy=0;" edge="1" parent="1" source="_RCp25i3ppbNcuDB2M4--16" target="_RCp25i3ppbNcuDB2M4--31">
          <mxGeometry width="50" height="50" relative="1" as="geometry">
            <mxPoint x="610" y="320" as="sourcePoint" />
            <mxPoint x="660" y="265" as="targetPoint" />
          </mxGeometry>
        </mxCell>
        <mxCell id="_RCp25i3ppbNcuDB2M4--35" style="edgeStyle=orthogonalEdgeStyle;rounded=0;orthogonalLoop=1;jettySize=auto;html=1;exitX=1;exitY=0.5;exitDx=0;exitDy=0;entryX=0;entryY=0.5;entryDx=0;entryDy=0;fontSize=16;strokeWidth=1;" edge="1" parent="1" source="_RCp25i3ppbNcuDB2M4--31" target="_RCp25i3ppbNcuDB2M4--32">
          <mxGeometry relative="1" as="geometry" />
        </mxCell>
        <mxCell id="_RCp25i3ppbNcuDB2M4--31" value="head coach&lt;br&gt;（2009，&lt;br&gt;2010）" style="whiteSpace=wrap;html=1;aspect=fixed;fontSize=15;" vertex="1" parent="1">
          <mxGeometry x="650" y="260" width="90" height="90" as="geometry" />
        </mxCell>
        <mxCell id="_RCp25i3ppbNcuDB2M4--32" value="Leonardo Araújo" style="ellipse;whiteSpace=wrap;html=1;aspect=fixed;fontSize=15;" vertex="1" parent="1">
          <mxGeometry x="790" y="265" width="80" height="80" as="geometry" />
        </mxCell>
        <mxCell id="_RCp25i3ppbNcuDB2M4--33" value="entity" style="text;html=1;strokeColor=none;fillColor=none;align=center;verticalAlign=middle;whiteSpace=wrap;rounded=0;fontSize=16;" vertex="1" parent="1">
          <mxGeometry x="800" y="235" width="60" height="30" as="geometry" />
        </mxCell>
        <mxCell id="_RCp25i3ppbNcuDB2M4--34" value="statement" style="text;html=1;strokeColor=none;fillColor=none;align=center;verticalAlign=middle;whiteSpace=wrap;rounded=0;fontSize=16;" vertex="1" parent="1">
          <mxGeometry x="665" y="235" width="60" height="30" as="geometry" />
        </mxCell>
        <mxCell id="_RCp25i3ppbNcuDB2M4--39" value="" style="rounded=1;whiteSpace=wrap;html=1;fontSize=16;strokeColor=#FF0000;fillColor=none;rotation=20;" vertex="1" parent="1">
          <mxGeometry x="141.88" y="233.57" width="472.39" height="195" as="geometry" />
        </mxCell>
        <mxCell id="_RCp25i3ppbNcuDB2M4--40" value="subset1" style="text;html=1;strokeColor=none;fillColor=none;align=center;verticalAlign=middle;whiteSpace=wrap;rounded=0;fontSize=16;" vertex="1" parent="1">
          <mxGeometry x="348.08000000000004" y="10" width="60" height="30" as="geometry" />
        </mxCell>
        <mxCell id="_RCp25i3ppbNcuDB2M4--41" value="subset2" style="text;html=1;strokeColor=none;fillColor=none;align=center;verticalAlign=middle;whiteSpace=wrap;rounded=0;fontSize=16;" vertex="1" parent="1">
          <mxGeometry x="665" y="60" width="60" height="30" as="geometry" />
        </mxCell>
        <mxCell id="_RCp25i3ppbNcuDB2M4--42" value="subset3" style="text;html=1;strokeColor=none;fillColor=none;align=center;verticalAlign=middle;whiteSpace=wrap;rounded=0;fontSize=16;rotation=20;" vertex="1" parent="1">
          <mxGeometry x="294" y="420" width="60" height="30" as="geometry" />
        </mxCell>
      </root>
    </mxGraphModel>
  </diagram>
</mxfile>
